<?xml version="1.0" encoding="utf-8"?>
<!-- Generator: Adobe Illustrator 23.0.2, SVG Export Plug-In . SVG Version: 6.00 Build 0)  -->
<svg fill="#FFFF" version="1.1" id="Layer_1" xmlns="http://www.w3.org/2000/svg" xmlns:xlink="http://www.w3.org/1999/xlink" x="0px" y="0px"
	 viewBox="0 0 349.7666 316.5615" enable-background="new 0 0 349.7666 316.5615" xml:space="preserve">
<g>
	<path d="M249.4463,75.5068c0.2637-7.9658,1.5449-12.6592,2.8086-15.2442V75.832c3.2617,0.8144,6.0313,3.0918,7.417,6.2627
		c2.4297,5.5508-0.1104,12.0508-5.666,14.4844c-0.5742,0.25-1.1651,0.4951-1.751,0.7402v24.5156
		c0,2.8047,2.2725,5.0762,5.0742,5.0762c2.8028,0,5.0762-2.2715,5.0762-5.0762V84.7822h1.9023v37.0527
		c0,2.8047,2.2725,5.0762,5.0743,5.0762c2.8027,0,5.0761-2.2715,5.0761-5.0762V60.2822c0.2422,0.5,0.4873,1.0722,0.7295,1.7402
		c1.1563,3.207,2.1299,8.4668,2.126,16.6797c0.001,2.2637-0.0723,4.75-0.2314,7.4805c-0.1055,1.8105,1.2763,3.3652,3.0869,3.4707
		c0.0654,0.0039,0.1299,0.0058,0.1943,0.0058c1.7266,0,3.1738-1.3496,3.2764-3.0937c0.166-2.8457,0.2412-5.459,0.2422-7.8633
		c-0.0176-12.3887-1.9961-19.2441-4.6934-23.3672c-1.3496-2.0469-2.9268-3.3613-4.3828-4.0879
		c-1.4004-0.7051-2.6318-0.8652-3.3721-0.875c-0.0498-0.0019-0.0986-0.0078-0.1484-0.0078h-15.8584
		c-0.0528,0-0.1035,0.0059-0.1563,0.0078c-0.7412,0.0098-1.9697,0.1719-3.3662,0.875c-2.208,1.0957-4.5879,3.4903-6.2529,7.7344
		c-1.6074,4.0586-2.708,9.8496-2.8135,18.4307c0.7871-0.3233,1.5733-0.6495,2.3438-0.9873
		C246.5401,75.8291,247.9737,75.5263,249.4463,75.5068z"/>
	<path d="M263.3565,48.0263c5.1015,0,9.2353-4.1367,9.2353-9.2363c0-5.1016-4.1338-9.2363-9.2353-9.2363
		c-5.1006,0-9.2364,4.1347-9.2364,9.2363C254.1201,43.8896,258.2559,48.0263,263.3565,48.0263z"/>
	<path d="M134.2119,202.9755c6.5332,0,12.5567,2.2149,17.3682,5.9268v-30.2334h4.6348v34.7129
		c4.0566,4.9248,6.4961,11.2295,6.4961,18.0937c0,6.8643-2.4395,13.168-6.4961,18.0928v4.2705
		c2.3447,0.2725,5.3271,0.9815,8.5937,2.6328c4.335,2.1602,8.334,5.6328,11.6504,10.0996c1.4815-1.9941,2.9951-3.6591,4.4844-5.0537
		V110.249c4.8291-0.4492,11.6465-1.2012,19.5371-2.418c15.5635-2.4121,35.2324-6.5469,52.3213-14
		c4.0449-1.7715,5.8926-6.4902,4.1201-10.5371c-1.7695-4.0488-6.4863-5.8926-10.5342-4.1211
		c-14.9111,6.543-33.5742,10.584-48.3428,12.8457c-7.3916,1.1406-13.8232,1.8535-18.3808,2.2813
		c-2.2783,0.2128-4.0879,0.3554-5.3193,0.4414c-0.4668,0.0332-0.8418,0.0586-1.129,0.0781h-0.0009h-38.6348
		c-0.1035,0-0.2041,0.0117-0.3066,0.0156c-1.7979,0.0137-4.8291,0.3945-8.2764,2.1328c-5.3789,2.668-11.1758,8.502-15.2324,18.8399
		c-4.1084,10.3808-6.8662,25.3867-6.8799,48.0468c0.0029,5.8575,0.1894,12.2247,0.5957,19.1602
		c0.25,4.25,3.7754,7.5313,7.9795,7.5313c0.1582,0,0.3174-0.0059,0.4765-0.0157c4.4112-0.2578,7.7764-4.0449,7.5176-8.4531
		c-0.3916-6.6484-0.5674-12.709-0.5674-18.2227c-0.0351-24.2207,3.4961-37.8261,6.9649-44.9238v85.0137
		C129.2002,203.3154,131.667,202.9755,134.2119,202.9755z"/>
	<circle cx="153.8965" cy="66.6201" r="22.5"/>
	<polygon points="130.7686,36.6699 134.7686,36.6699 134.7686,3.998 345.7666,3.998 345.7666,142.4707 195.0938,142.4726 
		195.0938,146.4755 349.7666,146.4726 349.7666,0 130.7686,0 	"/>
	<path d="M72.211,231.4755c0-12.4277-10.0723-22.5-22.5-22.5c-12.4258,0-22.5,10.0723-22.5,22.5
		c0,11.1758,8.1504,20.4444,18.83,22.1973h7.3399C64.0615,251.9199,72.211,242.6513,72.211,231.4755z"/>
	<path d="M130.541,253.6728h7.3399c10.6806-1.7529,18.8301-11.0215,18.8301-22.1973c0-12.4277-10.0723-22.5-22.5-22.5
		c-12.4258,0-22.5,10.0723-22.5,22.5C111.711,242.6513,119.8614,251.9199,130.541,253.6728z"/>
	<path d="M22.666,283.79v32.7715h54.0918v-32.7246c0.5928,1.2148,1.1914,2.6093,1.7813,4.2363
		c2.1992,6.0957,4.1201,15.2588,4.8555,28.4883h17.1191c0.9326-16.7842,3.8125-26.961,6.6523-32.7715v32.7715h54.0918v-32.7266
		c0.5928,1.2168,1.1914,2.6113,1.7813,4.2383c2.1992,6.0957,4.1201,15.2588,4.8555,28.4883h17.1191
		c0.9326-16.7842,3.8125-26.961,6.6523-32.7715v32.7715h54.0918v-32.7266c0.5928,1.2168,1.1914,2.6113,1.7813,4.2383
		c2.1992,6.0957,4.1201,15.2588,4.8555,28.4883h16.0185c-1.1553-22.6709-5.498-36.1748-11.1299-44.7813
		c-3.2851-4.9863-7.1269-8.1836-10.6787-9.9551c-3.416-1.7246-6.4209-2.1113-8.2236-2.1347
		c-0.1172-0.0039-0.2324-0.0176-0.3516-0.0176h-15.2051c-1.3437,0.1953-2.7158,0.3008-4.1132,0.3008
		c-1.3975,0-2.7696-0.1055-4.1143-0.3008h-15.2021c-0.1338,0-0.2637,0.0137-0.3965,0.0195
		c-1.8067,0.0274-4.791,0.4219-8.1826,2.1328c-5.0069,2.4805-10.3721,7.709-14.3633,16.752
		c-1.1387-2.5586-2.3692-4.8105-3.669-6.7969c-3.2851-4.9863-7.1269-8.1836-10.6787-9.9551
		c-3.416-1.7246-6.4209-2.1113-8.2236-2.1347c-0.1172-0.0039-0.2324-0.0176-0.3516-0.0176h-38.6347
		c-0.1338,0-0.2637,0.0137-0.3965,0.0195c-1.8067,0.0274-4.791,0.4219-8.1826,2.1328c-5.0069,2.4805-10.3721,7.709-14.3633,16.752
		c-1.1387-2.5586-2.3692-4.8105-3.669-6.7969c-3.2851-4.9863-7.1269-8.1836-10.6787-9.9551
		c-3.416-1.7246-6.4209-2.1113-8.2236-2.1347c-0.1172-0.0039-0.2324-0.0176-0.3516-0.0176H30.3946
		c-0.1348,0-0.2657,0.0137-0.3975,0.0195c-1.8066,0.0274-4.79,0.4219-8.1816,2.1328c-5.3809,2.6661-11.1788,8.5-15.2373,18.8418
		C3.2549,289.0664,0.8164,300.499,0,316.5615h16.0137C16.9463,299.7773,19.8262,289.6025,22.666,283.79z"/>
	<circle cx="218.711" cy="231.4755" r="22.5"/>
	<rect x="202.0948" y="34.8681" width="23" height="4"/>
	<rect x="287.5049" y="22.1181" width="23" height="4"/>
	<rect x="145.5049" y="13.3115" width="44" height="4"/>
	<rect x="145.5049" y="22.8115" width="27.0899" height="4"/>
	<polygon points="212.1807,41.9423 212.1807,41.9423 212.1807,41.9404 	"/>
	<polygon points="214.0088,41.1308 212.1807,41.9423 219.1104,57.5361 240.0948,57.5361 240.0948,55.5351 220.4112,55.5351 	"/>
	<polygon points="278.253,40.3681 293.5733,40.3662 300.1143,29.3779 298.3955,28.3574 298.3955,28.3554 292.4356,38.3671 
		278.253,38.3671 	"/>
	<rect x="305.7608" y="51.1181" width="23" height="4"/>
	<polygon points="310.6924,67.3652 289.253,67.3671 289.253,69.3691 311.8272,69.3671 318.3692,58.3789 316.6514,57.3574 
		316.6514,57.3554 	"/>
	<rect x="299.4278" y="108.0341" width="23" height="4"/>
	<polygon points="282.9199,95.7841 304.3584,95.7841 310.3184,105.7949 312.0371,104.7734 312.0371,104.7714 305.4951,93.7822 
		282.9199,93.7822 	"/>
	<rect x="207.5879" y="127.6181" width="23" height="4"/>
	<polygon points="247.0948,113.3691 224.5205,113.3662 217.9776,124.3554 219.6983,125.3798 219.6963,125.3779 225.6553,115.3671 
		247.0948,115.3671 	"/>
</g>
</svg>
