<?xml version="1.0" encoding="UTF-8" standalone="no"?> <svg fill="#FFFF" id="Layer_1" data-name="Layer 1" xmlns="http://www.w3.org/2000/svg" viewBox="0 0 24 24"><title>image, picture, photo, frame, photography</title><path d="M21,0H3A3,3,0,0,0,0,3V21a3,3,0,0,0,3,3H21a3,3,0,0,0,3-3V3A3,3,0,0,0,21,0ZM3,2H21a1,1,0,0,1,1,1V15.86L14.18,9.35a5.06,5.06,0,0,0-6.39-.06L2,13.92V3A1,1,0,0,1,3,2ZM21,22H3a1,1,0,0,1-1-1V16.48l7-5.63a3.06,3.06,0,0,1,3.86,0L22,18.47V21A1,1,0,0,1,21,22Z"/><path d="M18,9a3,3,0,1,0-3-3A3,3,0,0,0,18,9Zm0-4a1,1,0,1,1-1,1A1,1,0,0,1,18,5Z"/></svg>