<?xml version="1.0" encoding="UTF-8" standalone="no"?> <svg fill="#FFFF" id="Capa_1" enable-background="new 0 0 512 512" height="512" viewBox="0 0 512 512" width="512" xmlns="http://www.w3.org/2000/svg"><g><path d="m506.309 318.062c-10.754-17.418-33.484-23.025-52.863-13.048l-88.892 45.632c-7.297-7.88-17.719-12.824-29.278-12.824h-60.391c-3.599 0-4.535-.3-4.735-.393-.577-.264-2.111-1.713-3.593-3.114l-.519-.49c-48.406-45.555-89.334-42.654-135.896-24.286-7.681 3.031-7.977 3.044-15.544 3.382l-13.494.016v-3.756c0-15.637-12.724-28.357-28.363-28.357h-44.378c-15.639-.001-28.363 12.719-28.363 28.356v140.258c0 15.636 12.724 28.357 28.363 28.357h44.379c15.64 0 28.363-12.721 28.363-28.357v-3.74h24.603c2.352 0 2.352 0 5.009.746.942.264 31.741 8.518 31.741 8.518.866.231 1.735.343 2.59.343 4.416 0 8.458-2.949 9.653-7.418 1.427-5.335-1.741-10.817-7.075-12.243 0 0-30.628-8.208-31.507-8.455-4.12-1.156-5.526-1.489-10.412-1.489h-24.603v-92.753h13.097c.15 0 .301-.003.451-.01l.839-.038c9.062-.405 11.596-.656 21.99-4.757 41.652-16.433 73.798-18.386 114.84 20.237l.496.47c6.745 6.375 10.629 8.972 22.067 8.972h60.391c10.988 0 19.927 8.948 19.927 19.945 0 10.982-8.939 19.917-19.93 19.917l-97.855.028c-5.523.002-9.998 4.48-9.996 10.002s4.478 9.997 9.999 9.996h.003l97.852-.028c22.015 0 39.925-17.906 39.925-39.915 0-3.278-.405-6.462-1.153-9.512l88.543-45.454c8.726-4.491 20.701-3.954 26.708 5.776 5.298 8.564 2.421 19.895-6.705 26.368l-141.485 100.735c-29.53 19.662-42.014 16.037-72.117 7.304-4.589-1.332-9.334-2.709-14.591-4.132-5.33-1.439-10.821 1.711-12.264 7.041-1.442 5.331 1.71 10.822 7.041 12.265 5.082 1.375 9.739 2.726 14.242 4.032 14.585 4.232 26.84 7.79 39.613 7.789 14.416-.001 29.491-4.534 49.298-17.744.084-.057.168-.114.251-.173l141.596-100.815c17.843-12.656 23.057-35.523 12.132-53.184zm-425.202 131.376c0 4.609-3.752 8.359-8.365 8.359h-44.379c-4.612 0-8.365-3.75-8.365-8.359v-140.258c0-4.609 3.752-8.359 8.365-8.359h44.379c4.613 0 8.365 3.75 8.365 8.359z"/><path d="m152.601 172.631 110.466 106.604c1.937 1.87 4.441 2.804 6.944 2.804s5.006-.935 6.943-2.803l40.209-38.793 40.219 38.794c1.937 1.868 4.439 2.802 6.942 2.802s5.005-.935 6.942-2.802l63.82-61.559c.087-.083.172-.169.255-.255 21.276-22.06 21.273-57.927 0-79.948-6.427-6.662-14.505-11.093-23.438-12.998 5.15-29.167-3.635-59.085-24.202-80.379-14.558-15.081-34.518-22.903-56.231-22.005-20.581.845-40.455 9.298-55.958 23.799l-1.011.945c-1.529 1.432-3.181 2.978-4.473 4.105-1.293-1.127-2.945-2.673-4.474-4.105l-1.009-.944c-15.505-14.502-35.379-22.955-55.96-23.8-21.707-.891-41.673 6.924-56.231 22.005-34.154 35.384-34.152 92.934.003 128.286.077.084.16.166.244.247zm268.351-21.267c13.844 14.331 13.881 37.645.111 52.053l-56.74 54.73-56.74-54.73c-13.77-14.408-13.732-37.722.117-52.059 12.002-12.441 31.501-8.868 42.67 1.57l.595.559c4.164 3.911 7.76 7.289 13.347 7.289 5.576 0 9.008-3.211 13.352-7.276l.599-.56c11.183-10.448 30.68-14.025 42.689-1.576zm-254.213-93.377c21.313-22.079 59.059-20.951 84.144 2.512l1 .936c6.843 6.408 11.365 10.641 18.142 10.641s11.298-4.233 18.142-10.641l1.002-.938c25.085-23.462 62.83-24.588 84.144-2.509 16.888 17.484 23.596 42.467 18.199 66.448-9.919 1.971-19.261 6.751-26.9 13.89l-.289.27-.286-.269c-9.703-9.067-22.147-14.349-35.038-14.874-13.753-.56-26.43 4.419-35.687 14.015-21.278 22.028-21.281 57.894-.005 79.954.083.086.168.172.255.255l9.198 8.872-32.748 31.595-103.393-99.778c-26.64-27.705-26.599-72.698.12-100.379z"/><path d="m208.43 446.918c-5.523 0-10 4.477-10 9.999s4.477 9.999 10 9.999h.028c5.522 0 9.985-4.477 9.985-9.999s-4.491-9.999-10.013-9.999z"/></g></svg>