<?xml version="1.0" encoding="iso-8859-1"?>
<!-- Generator: Adobe Illustrator 19.0.0, SVG Export Plug-In . SVG Version: 6.00 Build 0)  -->
<svg fill="#FFFF" version="1.1" id="Capa_1" xmlns="http://www.w3.org/2000/svg" xmlns:xlink="http://www.w3.org/1999/xlink" x="0px" y="0px"
	 viewBox="0 0 512 512" style="enable-background:new 0 0 512 512;" xml:space="preserve">
<g>
	<g>
		<path d="M462,143c-5.52,0-10,4.48-10,10s4.48,10,10,10c5.52,0,10-4.48,10-10S467.52,143,462,143z"/>
	</g>
</g>
<g>
	<g>
		<path d="M359,452c-5.52,0-10,4.48-10,10c0,5.52,4.48,10,10,10c5.52,0,10-4.48,10-10C369,456.48,364.52,452,359,452z"/>
	</g>
</g>
<g>
	<g>
		<path d="M153,40c-5.52,0-10,4.48-10,10s4.48,10,10,10s10-4.48,10-10S158.52,40,153,40z"/>
	</g>
</g>
<g>
	<g>
		<path d="M50,349c-5.52,0-10,4.48-10,10c0,5.52,4.48,10,10,10s10-4.48,10-10C60,353.48,55.52,349,50,349z"/>
	</g>
</g>
<g>
	<g>
		<path d="M482,0H30C13.458,0,0,13.458,0,30v452c0,16.542,13.458,30,30,30h452c16.542,0,30-13.458,30-30V30
			C512,13.458,498.542,0,482,0z M20,30c0-5.514,4.486-10,10-10h216v78.35c0,0.035,0.005,0.069,0.005,0.104
			c0.072,7.653,8.352,12.299,14.904,8.602c0.032-0.018,0.064-0.031,0.096-0.049c4.534-2.621,9.72-4.007,14.995-4.007
			c18.423,0,33.39,16.739,29.335,36.474c-3.947,19.178-26.366,29.912-44.327,19.521c-6.585-3.816-15.008,0.903-15.008,8.656V246
			h-64.022c1.436-7.091,1.348-14.519-0.347-21.83c-4.263-18.371-19.584-33.278-38.128-37.095C111.705,180.545,83,204.603,83,236
			c0,3.372,0.348,6.722,1.015,10H20V30z M246,492H30c-5.514,0-10-4.486-10-10V266h78.337c0.008,0,0.015,0.001,0.023,0.001
			c0.047,0,0.095-0.009,0.143-0.009c7.466-0.113,12.332-8.214,8.555-14.9c-0.018-0.032-0.032-0.066-0.05-0.098
			C104.386,246.461,103,241.276,103,236c0-18.45,16.772-33.386,36.475-29.335c10.859,2.235,20.184,11.292,22.674,22.023
			c2.305,9.944-0.443,17.618-3.154,22.304c-3.849,6.663,0.979,14.928,8.546,15.002c0.037,0,0.073,0.006,0.11,0.006H246v64.022
			c-27.753-5.62-53.589,12.555-58.926,38.475C180.542,400.298,204.607,429,236,429c3.372,0,6.722-0.348,10-1.015V492z M492,482
			c0,5.514-4.486,10-10,10H266v-78.35c0-0.035-0.005-0.069-0.005-0.104c-0.066-7.437-8.166-12.404-14.904-8.602
			c-0.032,0.018-0.064,0.031-0.096,0.049C246.461,407.614,241.275,409,236,409c-18.423,0-33.39-16.739-29.335-36.474
			c3.947-19.178,26.365-29.911,44.327-19.521c0.032,0.019,0.066,0.032,0.099,0.051c6.603,3.732,14.909-1.025,14.909-8.706V265.9
			h64.008c-0.667,3.277-1.008,6.729-1.008,10.1c0,31.512,28.821,55.433,60.506,48.925c18.541-3.816,33.862-18.724,38.125-37.097
			c1.695-7.31,1.783-14.737,0.347-21.828H492V482z M492,246h-78.35c-7.692,0-12.431,8.315-8.708,14.907
			c0.019,0.033,0.032,0.068,0.052,0.1c2.711,4.687,5.459,12.36,3.154,22.302c-2.49,10.733-11.814,19.791-22.671,22.025
			C365.739,309.392,349,294.421,349,276c0-5.276,1.386-10.461,4.007-14.995c3.846-6.651-0.959-15.005-8.657-15.005H266v-64.022
			c27.753,5.62,53.589-12.555,58.926-38.476C331.458,111.702,307.393,83,276,83c-3.372,0-6.722,0.348-10,1.015V20h216
			c5.514,0,10,4.486,10,10V246z"/>
	</g>
</g>
<g>
	<g>
		<path d="M153,452H70c-5.514,0-10-4.486-10-10v-43c0-5.523-4.478-10-10-10s-10,4.477-10,10v43c0,16.542,13.458,30,30,30h83
			c5.522,0,10-4.477,10-10S158.522,452,153,452z"/>
	</g>
</g>
<g>
	<g>
		<path d="M462,349c-5.522,0-10,4.477-10,10v83c0,5.514-4.486,10-10,10h-43c-5.522,0-10,4.477-10,10s4.478,10,10,10h43
			c16.542,0,30-13.458,30-30v-83C472,353.477,467.522,349,462,349z"/>
	</g>
</g>
<g>
	<g>
		<path d="M442,40h-83c-5.522,0-10,4.477-10,10s4.478,10,10,10h83c5.514,0,10,4.486,10,10v43c0,5.523,4.478,10,10,10
			c5.522,0,10-4.477,10-10V70C472,53.458,458.542,40,442,40z"/>
	</g>
</g>
<g>
	<g>
		<path d="M113,40H70c-16.542,0-30,13.458-30,30v83c0,5.523,4.478,10,10,10s10-4.477,10-10V70c0-5.514,4.486-10,10-10h43
			c5.522,0,10-4.477,10-10S118.522,40,113,40z"/>
	</g>
</g>
<g>
</g>
<g>
</g>
<g>
</g>
<g>
</g>
<g>
</g>
<g>
</g>
<g>
</g>
<g>
</g>
<g>
</g>
<g>
</g>
<g>
</g>
<g>
</g>
<g>
</g>
<g>
</g>
<g>
</g>
</svg>
