<?xml version="1.0" encoding="iso-8859-1"?>
<!-- Generator: Adobe Illustrator 22.1.0, SVG Export Plug-In . SVG Version: 6.00 Build 0)  -->
<svg fill = "#ffff" version="1.1" xmlns="http://www.w3.org/2000/svg" xmlns:xlink="http://www.w3.org/1999/xlink" x="0px" y="0px"
	 viewBox="0 0 50 50" style="enable-background:new 0 0 50 50;" xml:space="preserve">
<g id="Layer_1">
	<path d="M44,1H6C3.243,1,1,3.243,1,6v38c0,2.757,2.243,5,5,5h21V30h-6v-6h6v-4c0-6.065,4.935-11,11-11h3v6h-3c-2.757,0-5,2.243-5,5
		v4h7.867l-0.75,6H33v19h11c2.757,0,5-2.243,5-5V6C49,3.243,46.757,1,44,1z M47,44c0,1.654-1.346,3-3,3h-9V32h6.883l1.25-10H35v-2
		c0-1.654,1.346-3,3-3h5V7h-5c-7.168,0-13,5.832-13,13v2h-6v10h6v15H6c-1.654,0-3-1.346-3-3V6c0-1.654,1.346-3,3-3h38
		c1.654,0,3,1.346,3,3V44z"/>
</g>
<g>
</g>
</svg>
