<?xml version="1.0" encoding="UTF-8" standalone="no"?> <svg  fill = "#ffff" xmlns="http://www.w3.org/2000/svg" viewBox="0 0 107.3 107.3"><defs><style>.cls-1{fill:#007bbc;}</style></defs><title>Asset 6</title><g id="Layer_2" data-name="Layer 2"><g id="图层_1" data-name="图层 1"><path class="cls-1" d="M82,58.16v20a.89.89,0,0,1-.9.89H70.78a.89.89,0,0,1-.89-.89V59.56c0-4.89-1.75-8.24-6.14-8.24a6.62,6.62,0,0,0-6.21,4.43,8.29,8.29,0,0,0-.4,3V78.16a.89.89,0,0,1-.9.89H45.92a.88.88,0,0,1-.89-.89c0-5,.12-29,0-34.63a.89.89,0,0,1,.89-.91h10.3a.9.9,0,0,1,.9.9v4.26a.83.83,0,0,0-.08.12h.08v-.12a12,12,0,0,1,10.91-6c8,0,14,5.2,14,16.39ZM27.11,79.05H37.43a.89.89,0,0,0,.89-.89V43.52a.89.89,0,0,0-.89-.9H27.11a.9.9,0,0,0-.9.9V78.16A.89.89,0,0,0,27.11,79.05Z"/><circle class="cls-1" cx="31.91" cy="31.5" r="6.48"/><path class="cls-1" d="M88.49,6.89a11.94,11.94,0,0,1,11.92,11.92V88.49a11.94,11.94,0,0,1-11.92,11.92H18.81A11.94,11.94,0,0,1,6.89,88.49V18.81A11.94,11.94,0,0,1,18.81,6.89H88.49m0-6.89H18.81A18.81,18.81,0,0,0,0,18.81V88.49A18.81,18.81,0,0,0,18.81,107.3H88.49A18.81,18.81,0,0,0,107.3,88.49V18.81A18.81,18.81,0,0,0,88.49,0Z"/></g></g></svg>